STARTFONT 2.1
FONT -MIT-25FGB1 KST-Medium-R-Normal--25-9-200-200-P-16-ISO8859-1
SIZE 9 200 200
FONTBOUNDINGBOX 16 25 0 -5
STARTPROPERTIES 17
ADD_STYLE_NAME ""
AVERAGE_WIDTH 16
CHARSET_ENCODING "1"
CHARSET_REGISTRY "ISO8859"
DEFAULT_CHAR 0
FAMILY "25FGB1 KST"
FONT_ASCENT 20
FONT_DESCENT 5
FOUNDRY "MIT"
PIXEL_SIZE 25
POINT_SIZE 9
RESOLUTION_X 200
RESOLUTION_Y 200
SETWIDTH_NAME "Normal"
SLANT "R"
SPACING "P"
WEIGHT_NAME "Medium"
ENDPROPERTIES
CHARS 97
STARTCHAR char11
ENCODING 11
SWIDTH 1776 0
DWIDTH 16 0
BBX 16 25 0 -5
BITMAP
0000
0000
0000
0080
01C0
03E0
07F0
0FF8
0DD8
09C8
01C0
01C0
01C0
01C0
01C0
01C0
01C0
01C0
0000
0000
0000
0000
0000
0000
0000
ENDCHAR
STARTCHAR char28
ENCODING 28
SWIDTH 1776 0
DWIDTH 16 0
BBX 16 25 0 -5
BITMAP
0000
0000
0180
03C0
01E0
00F0
0078
001C
001C
001C
001C
0038
0078
10F0
19E0
1FC0
1F80
1F00
1F80
1FC0
0000
0000
0000
0000
0000
ENDCHAR
STARTCHAR char31
ENCODING 31
SWIDTH 1776 0
DWIDTH 16 0
BBX 16 25 0 -5
BITMAP
0000
0000
0000
0000
0000
0000
0000
0000
0000
0000
0000
0000
0000
0000
0000
0000
0000
0000
0000
0000
0000
0000
0000
0000
0000
ENDCHAR
STARTCHAR char32
ENCODING 32
SWIDTH 1776 0
DWIDTH 16 0
BBX 16 25 0 -5
BITMAP
0000
0000
0000
0000
0000
0000
0000
0000
0000
0000
0000
0000
0000
0000
0000
0000
0000
0000
0000
0000
0000
0000
0000
0000
0000
ENDCHAR
STARTCHAR char33
ENCODING 33
SWIDTH 1776 0
DWIDTH 16 0
BBX 16 25 0 -5
BITMAP
0000
0380
0380
0380
0380
0380
0380
0380
0380
0380
0380
0380
0380
0380
0000
0000
0000
0380
0380
0380
0000
0000
0000
0000
0000
ENDCHAR
STARTCHAR char34
ENCODING 34
SWIDTH 1776 0
DWIDTH 16 0
BBX 16 25 0 -5
BITMAP
0000
0E70
0E70
0E70
0E70
0E70
0E70
0E70
0E70
0E70
0000
0000
0000
0000
0000
0000
0000
0000
0000
0000
0000
0000
0000
0000
0000
ENDCHAR
STARTCHAR char35
ENCODING 35
SWIDTH 1776 0
DWIDTH 16 0
BBX 16 25 0 -5
BITMAP
00CC
00CC
0198
0198
0198
0330
0330
3FFE
3FFE
0660
0660
7FFC
7FFC
0CC0
0CC0
1980
1980
1980
3300
3300
0000
0000
0000
0000
0000
ENDCHAR
STARTCHAR char36
ENCODING 36
SWIDTH 1776 0
DWIDTH 16 0
BBX 16 25 0 -5
BITMAP
0180
07F0
0FF8
1D98
1980
1980
1980
1D80
0F80
07E0
01F0
01B8
019C
018C
018C
318C
318C
399C
1FF8
0FF0
0180
0000
0000
0000
0000
ENDCHAR
STARTCHAR char37
ENCODING 37
SWIDTH 1776 0
DWIDTH 16 0
BBX 16 25 0 -5
BITMAP
0000
001C
3C1C
7E38
6638
6670
6670
7EE0
3CE0
01C0
01C0
0380
0380
073C
077E
0E66
0E66
1C66
1C7E
383C
3800
0000
0000
0000
0000
ENDCHAR
STARTCHAR char38
ENCODING 38
SWIDTH 1776 0
DWIDTH 16 0
BBX 16 25 0 -5
BITMAP
0000
0780
0FC0
1CE0
1860
1860
1CE0
0FC0
0780
0F86
1FC6
38EE
707C
607C
6038
6078
707C
38EE
3FCE
0F86
0000
0000
0000
0000
0000
ENDCHAR
STARTCHAR char39
ENCODING 39
SWIDTH 1776 0
DWIDTH 16 0
BBX 16 25 0 -5
BITMAP
0000
01C0
01C0
01C0
01C0
01C0
01C0
01C0
01C0
01C0
0000
0000
0000
0000
0000
0000
0000
0000
0000
0000
0000
0000
0000
0000
0000
ENDCHAR
STARTCHAR char40
ENCODING 40
SWIDTH 1776 0
DWIDTH 16 0
BBX 16 25 0 -5
BITMAP
00E0
01C0
01C0
0380
0380
0700
0700
0E00
0E00
0E00
0E00
0E00
0E00
0E00
0E00
0E00
0E00
0700
0700
0380
0380
01C0
01C0
00E0
0000
ENDCHAR
STARTCHAR char41
ENCODING 41
SWIDTH 1776 0
DWIDTH 16 0
BBX 16 25 0 -5
BITMAP
0700
0380
0380
01C0
01C0
00E0
00E0
0070
0070
0070
0070
0070
0070
0070
0070
0070
0070
00E0
00E0
01C0
01C0
0380
0380
0700
0000
ENDCHAR
STARTCHAR char42
ENCODING 42
SWIDTH 1776 0
DWIDTH 16 0
BBX 16 25 0 -5
BITMAP
0000
0100
0380
3398
3BB8
3FF8
1FF0
0FE0
07C0
0FE0
1EF0
3C78
3838
0000
0000
0000
0000
0000
0000
0000
0000
0000
0000
0000
0000
ENDCHAR
STARTCHAR char43
ENCODING 43
SWIDTH 1776 0
DWIDTH 16 0
BBX 16 25 0 -5
BITMAP
0000
0000
0000
0000
0000
0380
0380
0380
0380
0380
7FFC
7FFC
7FFC
0380
0380
0380
0380
0380
0000
0000
0000
0000
0000
0000
0000
ENDCHAR
STARTCHAR char44
ENCODING 44
SWIDTH 1776 0
DWIDTH 16 0
BBX 16 25 0 -5
BITMAP
0000
0000
0000
0000
0000
0000
0000
0000
0000
0000
0000
0000
0000
0000
0000
0000
0380
07C0
07C0
03C0
01C0
0380
0700
0600
0000
ENDCHAR
STARTCHAR char45
ENCODING 45
SWIDTH 1776 0
DWIDTH 16 0
BBX 16 25 0 -5
BITMAP
0000
0000
0000
0000
0000
0000
0000
0000
0000
0000
1FF8
1FF8
1FF8
0000
0000
0000
0000
0000
0000
0000
0000
0000
0000
0000
0000
ENDCHAR
STARTCHAR char46
ENCODING 46
SWIDTH 1776 0
DWIDTH 16 0
BBX 16 25 0 -5
BITMAP
0000
0000
0000
0000
0000
0000
0000
0000
0000
0000
0000
0000
0000
0000
0000
0000
01C0
03E0
03E0
01C0
0000
0000
0000
0000
0000
ENDCHAR
STARTCHAR char47
ENCODING 47
SWIDTH 1776 0
DWIDTH 16 0
BBX 16 25 0 -5
BITMAP
001C
001C
0038
0038
0070
0070
0060
00E0
00E0
00C0
01C0
0180
0380
0380
0700
0700
0E00
0E00
0C00
1C00
1C00
0000
0000
0000
0000
ENDCHAR
STARTCHAR char48
ENCODING 48
SWIDTH 1776 0
DWIDTH 16 0
BBX 16 25 0 -5
BITMAP
0000
07C0
0FE0
1EF0
1C70
3838
3838
3838
3838
3838
3838
3838
3838
3838
3838
3838
1C70
1EF0
0FE0
07C0
0000
0000
0000
0000
0000
ENDCHAR
STARTCHAR char49
ENCODING 49
SWIDTH 1776 0
DWIDTH 16 0
BBX 16 25 0 -5
BITMAP
0000
0FC0
0FC0
01C0
01C0
01C0
01C0
01C0
01C0
01C0
01C0
01C0
01C0
01C0
01C0
01C0
01C0
01C0
0FF8
0FF8
0000
0000
0000
0000
0000
ENDCHAR
STARTCHAR char50
ENCODING 50
SWIDTH 1776 0
DWIDTH 16 0
BBX 16 25 0 -5
BITMAP
0000
07E0
0FF0
1C38
1C18
1C18
0018
0038
0070
00E0
01C0
0380
0700
0E00
1C00
3800
3800
3800
3FF8
3FF8
0000
0000
0000
0000
0000
ENDCHAR
STARTCHAR char51
ENCODING 51
SWIDTH 1776 0
DWIDTH 16 0
BBX 16 25 0 -5
BITMAP
0000
07C0
0FE0
1C70
1C38
0038
0038
0038
0070
03E0
03F0
0078
001C
001C
001C
301C
381C
3C78
1FF0
07E0
0000
0000
0000
0000
0000
ENDCHAR
STARTCHAR char52
ENCODING 52
SWIDTH 1776 0
DWIDTH 16 0
BBX 16 25 0 -5
BITMAP
0000
00F0
01F0
01F0
03F0
0770
0670
0E70
0C70
1C70
1870
3870
7070
7FFC
7FFC
0070
0070
0070
0070
0070
0000
0000
0000
0000
0000
ENDCHAR
STARTCHAR char53
ENCODING 53
SWIDTH 1776 0
DWIDTH 16 0
BBX 16 25 0 -5
BITMAP
0000
0FF8
0FF8
0C00
0C00
0C00
0C00
0DE0
0FF0
0E38
0E1C
001C
001C
001C
001C
181C
1C18
0E38
07F0
03E0
0000
0000
0000
0000
0000
ENDCHAR
STARTCHAR char54
ENCODING 54
SWIDTH 1776 0
DWIDTH 16 0
BBX 16 25 0 -5
BITMAP
0000
03F0
07F8
0E18
0C00
1800
1800
39E0
3BF0
3E38
3C1C
381C
381C
381C
381C
181C
1C18
0E38
07F0
03E0
0000
0000
0000
0000
0000
ENDCHAR
STARTCHAR char55
ENCODING 55
SWIDTH 1776 0
DWIDTH 16 0
BBX 16 25 0 -5
BITMAP
0000
1FFC
1FFC
001C
0038
0038
0030
0070
0060
0060
00E0
00C0
01C0
0180
0380
0300
0700
0700
0E00
0E00
0000
0000
0000
0000
0000
ENDCHAR
STARTCHAR char56
ENCODING 56
SWIDTH 1776 0
DWIDTH 16 0
BBX 16 25 0 -5
BITMAP
0000
0FE0
1FF0
3C78
3838
3838
3838
3838
1C70
0FE0
1FF0
3838
701C
701C
701C
701C
701C
3838
1FF0
0FE0
0000
0000
0000
0000
0000
ENDCHAR
STARTCHAR char57
ENCODING 57
SWIDTH 1776 0
DWIDTH 16 0
BBX 16 25 0 -5
BITMAP
0000
07C0
0FF0
1E30
1C18
3818
381C
381C
381C
381C
381C
1C3C
0FFC
07DC
0018
0038
0030
1C70
1FE0
0FC0
0000
0000
0000
0000
0000
ENDCHAR
STARTCHAR char58
ENCODING 58
SWIDTH 1776 0
DWIDTH 16 0
BBX 16 25 0 -5
BITMAP
0000
0000
0000
0000
0000
0000
0000
01C0
03E0
03E0
01C0
0000
0000
0000
0000
0000
01C0
03E0
03E0
01C0
0000
0000
0000
0000
0000
ENDCHAR
STARTCHAR char59
ENCODING 59
SWIDTH 1776 0
DWIDTH 16 0
BBX 16 25 0 -5
BITMAP
0000
0000
0000
0000
0000
0000
0000
01C0
03E0
03E0
01C0
0000
0000
0000
0000
0000
01C0
03E0
03E0
01E0
00E0
01C0
0380
0300
0000
ENDCHAR
STARTCHAR char60
ENCODING 60
SWIDTH 1776 0
DWIDTH 16 0
BBX 16 25 0 -5
BITMAP
0000
0038
0070
00E0
01C0
0380
0700
0E00
1C00
3800
7000
3800
1C00
0E00
0700
0380
01C0
00E0
0070
0038
0000
0000
0000
0000
0000
ENDCHAR
STARTCHAR char61
ENCODING 61
SWIDTH 1776 0
DWIDTH 16 0
BBX 16 25 0 -5
BITMAP
0000
0000
0000
0000
0000
0000
0000
3FF8
3FF8
3FF8
0000
0000
0000
3FF8
3FF8
3FF8
0000
0000
0000
0000
0000
0000
0000
0000
0000
ENDCHAR
STARTCHAR char62
ENCODING 62
SWIDTH 1776 0
DWIDTH 16 0
BBX 16 25 0 -5
BITMAP
0000
1C00
0E00
0700
0380
01C0
00E0
0070
0038
001C
000E
001C
0038
0070
00E0
01C0
0380
0700
0E00
1C00
0000
0000
0000
0000
0000
ENDCHAR
STARTCHAR char63
ENCODING 63
SWIDTH 1776 0
DWIDTH 16 0
BBX 16 25 0 -5
BITMAP
0000
03F0
07F8
0F3C
0E1C
0E1C
001C
003C
0078
00F0
01E0
01C0
01C0
01C0
01C0
0000
0000
01C0
01C0
01C0
0000
0000
0000
0000
0000
ENDCHAR
STARTCHAR char64
ENCODING 64
SWIDTH 1776 0
DWIDTH 16 0
BBX 16 25 0 -5
BITMAP
0000
07E0
0FF0
1C38
181C
380C
30FC
31FC
339C
330C
330C
330C
339C
31FC
30F8
3800
1800
1C60
0FE0
07E0
0000
0000
0000
0000
0000
ENDCHAR
STARTCHAR char65
ENCODING 65
SWIDTH 1776 0
DWIDTH 16 0
BBX 16 25 0 -5
BITMAP
0000
03C0
03C0
07E0
0660
0660
0E60
0E70
0E70
0C30
1C38
1C38
1FF8
1FF8
381C
381C
381C
700E
700E
700E
0000
0000
0000
0000
0000
ENDCHAR
STARTCHAR char66
ENCODING 66
SWIDTH 1776 0
DWIDTH 16 0
BBX 16 25 0 -5
BITMAP
0000
3FE0
3FF0
3878
3838
3838
3838
3838
3870
3FE0
3FE0
3870
3838
381C
381C
381C
383C
3878
3FF0
3FE0
0000
0000
0000
0000
0000
ENDCHAR
STARTCHAR char67
ENCODING 67
SWIDTH 1776 0
DWIDTH 16 0
BBX 16 25 0 -5
BITMAP
0000
03E0
07F0
0E38
1C1C
1C1C
3800
3800
3800
3800
3800
3800
3800
3800
3800
1C1C
1C1C
0E38
07F0
03E0
0000
0000
0000
0000
0000
ENDCHAR
STARTCHAR char68
ENCODING 68
SWIDTH 1776 0
DWIDTH 16 0
BBX 16 25 0 -5
BITMAP
0000
3FC0
3FE0
3870
3838
381C
381C
381C
381C
381C
381C
381C
381C
381C
381C
381C
3838
3870
3FE0
3FC0
0000
0000
0000
0000
0000
ENDCHAR
STARTCHAR char69
ENCODING 69
SWIDTH 1776 0
DWIDTH 16 0
BBX 16 25 0 -5
BITMAP
0000
3FFC
3FFC
3800
3800
3800
3800
3800
3800
3FF0
3FF0
3800
3800
3800
3800
3800
3800
3800
3FFC
3FFC
0000
0000
0000
0000
0000
ENDCHAR
STARTCHAR char70
ENCODING 70
SWIDTH 1776 0
DWIDTH 16 0
BBX 16 25 0 -5
BITMAP
0000
3FFC
3FFC
3800
3800
3800
3800
3800
3800
3FF0
3FF0
3800
3800
3800
3800
3800
3800
3800
3800
3800
0000
0000
0000
0000
0000
ENDCHAR
STARTCHAR char71
ENCODING 71
SWIDTH 1776 0
DWIDTH 16 0
BBX 16 25 0 -5
BITMAP
0000
07E0
0FF0
1E38
3C1C
381C
3800
3800
3800
3800
3800
39FC
39FC
380C
380C
380C
3C1C
1E3C
0FFC
07EC
0000
0000
0000
0000
0000
ENDCHAR
STARTCHAR char72
ENCODING 72
SWIDTH 1776 0
DWIDTH 16 0
BBX 16 25 0 -5
BITMAP
0000
381C
381C
381C
381C
381C
381C
381C
381C
3FFC
3FFC
381C
381C
381C
381C
381C
381C
381C
381C
381C
0000
0000
0000
0000
0000
ENDCHAR
STARTCHAR char73
ENCODING 73
SWIDTH 1776 0
DWIDTH 16 0
BBX 16 25 0 -5
BITMAP
0000
1FFC
1FFC
01C0
01C0
01C0
01C0
01C0
01C0
01C0
01C0
01C0
01C0
01C0
01C0
01C0
01C0
01C0
1FFC
1FFC
0000
0000
0000
0000
0000
ENDCHAR
STARTCHAR char74
ENCODING 74
SWIDTH 1776 0
DWIDTH 16 0
BBX 16 25 0 -5
BITMAP
0000
01FC
01FC
001C
001C
001C
001C
001C
001C
001C
001C
001C
381C
381C
381C
381C
381C
1C38
0FF0
07E0
0000
0000
0000
0000
0000
ENDCHAR
STARTCHAR char75
ENCODING 75
SWIDTH 1776 0
DWIDTH 16 0
BBX 16 25 0 -5
BITMAP
0000
7018
7038
7070
70E0
71C0
7380
7700
7E00
7C00
7C00
7E00
7F00
7780
73C0
71E0
70F0
7078
703C
701C
0000
0000
0000
0000
0000
ENDCHAR
STARTCHAR char76
ENCODING 76
SWIDTH 1776 0
DWIDTH 16 0
BBX 16 25 0 -5
BITMAP
0000
1C00
1C00
1C00
1C00
1C00
1C00
1C00
1C00
1C00
1C00
1C00
1C00
1C00
1C00
1C00
1C00
1C00
1FFE
1FFE
0000
0000
0000
0000
0000
ENDCHAR
STARTCHAR char77
ENCODING 77
SWIDTH 1776 0
DWIDTH 16 0
BBX 16 25 0 -5
BITMAP
0000
701C
783C
783C
7C7C
7C7C
7EFC
76DC
77DC
77DC
739C
739C
711C
711C
701C
701C
701C
701C
701C
701C
0000
0000
0000
0000
0000
ENDCHAR
STARTCHAR char78
ENCODING 78
SWIDTH 1776 0
DWIDTH 16 0
BBX 16 25 0 -5
BITMAP
0000
381C
3C1C
3C1C
3E1C
3E1C
3F1C
3B1C
3B1C
3B9C
399C
39DC
39DC
38DC
38FC
387C
387C
383C
383C
381C
0000
0000
0000
0000
0000
ENDCHAR
STARTCHAR char79
ENCODING 79
SWIDTH 1776 0
DWIDTH 16 0
BBX 16 25 0 -5
BITMAP
0000
07E0
0FF0
1E78
3C3C
381C
700E
700E
700E
700E
700E
700E
700E
700E
700E
381C
3C3C
1E78
0FF0
07E0
0000
0000
0000
0000
0000
ENDCHAR
STARTCHAR char80
ENCODING 80
SWIDTH 1776 0
DWIDTH 16 0
BBX 16 25 0 -5
BITMAP
0000
1FE0
1FF0
1C38
1C1C
1C1C
1C1C
1C1C
1C1C
1C1C
1C38
1FF0
1FE0
1C00
1C00
1C00
1C00
1C00
1C00
1C00
0000
0000
0000
0000
0000
ENDCHAR
STARTCHAR char81
ENCODING 81
SWIDTH 1776 0
DWIDTH 16 0
BBX 16 25 0 -5
BITMAP
0000
07E0
0FF0
1E78
3C3C
381C
700E
700E
700E
700E
700E
700E
700E
700E
700E
381C
3C3C
1E78
0FF0
07E0
00E0
0070
0038
0018
0000
ENDCHAR
STARTCHAR char82
ENCODING 82
SWIDTH 1776 0
DWIDTH 16 0
BBX 16 25 0 -5
BITMAP
0000
3FE0
3FF0
3878
3838
3838
3838
3838
3838
3870
3FE0
3FC0
39C0
38E0
3870
3870
3838
381C
381E
380C
0000
0000
0000
0000
0000
ENDCHAR
STARTCHAR char83
ENCODING 83
SWIDTH 1776 0
DWIDTH 16 0
BBX 16 25 0 -5
BITMAP
0000
0FF0
1FF8
3C38
3818
3800
3C00
1F00
0F80
07E0
01F0
0078
003C
001C
001C
701C
701C
783C
3FF8
1FF0
0000
0000
0000
0000
0000
ENDCHAR
STARTCHAR char84
ENCODING 84
SWIDTH 1776 0
DWIDTH 16 0
BBX 16 25 0 -5
BITMAP
0000
3FFE
3FFE
01C0
01C0
01C0
01C0
01C0
01C0
01C0
01C0
01C0
01C0
01C0
01C0
01C0
01C0
01C0
01C0
01C0
0000
0000
0000
0000
0000
ENDCHAR
STARTCHAR char85
ENCODING 85
SWIDTH 1776 0
DWIDTH 16 0
BBX 16 25 0 -5
BITMAP
0000
381C
381C
381C
381C
381C
381C
381C
381C
381C
381C
381C
381C
381C
381C
381C
381C
1C38
0FF0
07E0
0000
0000
0000
0000
0000
ENDCHAR
STARTCHAR char86
ENCODING 86
SWIDTH 1776 0
DWIDTH 16 0
BBX 16 25 0 -5
BITMAP
0000
700E
700E
700E
700E
381C
381C
381C
1C38
1C38
1C38
1C38
1C38
0E70
0E70
0E70
0660
07E0
03C0
03C0
0000
0000
0000
0000
0000
ENDCHAR
STARTCHAR char87
ENCODING 87
SWIDTH 1776 0
DWIDTH 16 0
BBX 16 25 0 -5
BITMAP
0000
700E
700E
700E
700E
700E
700E
381C
399C
399C
399C
3BDC
3BDC
1BD8
1FF8
1E78
1E78
1C38
0C30
0C30
0000
0000
0000
0000
0000
ENDCHAR
STARTCHAR char88
ENCODING 88
SWIDTH 1776 0
DWIDTH 16 0
BBX 16 25 0 -5
BITMAP
0000
380E
380E
1C1C
1C1C
0E38
0E38
0770
03E0
03E0
01C0
03E0
03E0
0770
0630
0E38
1C1C
1C1C
380E
380E
0000
0000
0000
0000
0000
ENDCHAR
STARTCHAR char89
ENCODING 89
SWIDTH 1776 0
DWIDTH 16 0
BBX 16 25 0 -5
BITMAP
0000
380E
380E
1C1C
1C1C
0E38
0E38
0770
0770
03E0
01C0
01C0
01C0
01C0
01C0
01C0
01C0
01C0
01C0
01C0
0000
0000
0000
0000
0000
ENDCHAR
STARTCHAR char90
ENCODING 90
SWIDTH 1776 0
DWIDTH 16 0
BBX 16 25 0 -5
BITMAP
0000
1FFC
1FFC
0038
0038
0070
0060
00E0
00C0
01C0
0180
0380
0300
0700
0E00
0E00
1C00
1C00
3FFC
3FFC
0000
0000
0000
0000
0000
ENDCHAR
STARTCHAR char91
ENCODING 91
SWIDTH 1776 0
DWIDTH 16 0
BBX 16 25 0 -5
BITMAP
3FE0
3FE0
3800
3800
3800
3800
3800
3800
3800
3800
3800
3800
3800
3800
3800
3800
3800
3800
3800
3800
3800
3800
3FE0
3FE0
0000
ENDCHAR
STARTCHAR char92
ENCODING 92
SWIDTH 1776 0
DWIDTH 16 0
BBX 16 25 0 -5
BITMAP
3800
3800
1C00
1C00
0E00
0E00
0600
0700
0700
0300
0380
0180
01C0
01C0
00E0
00E0
0070
0070
0030
0038
0038
0018
001C
001C
0000
ENDCHAR
STARTCHAR char93
ENCODING 93
SWIDTH 1776 0
DWIDTH 16 0
BBX 16 25 0 -5
BITMAP
07FC
07FC
001C
001C
001C
001C
001C
001C
001C
001C
001C
001C
001C
001C
001C
001C
001C
001C
001C
001C
001C
001C
07FC
07FC
0000
ENDCHAR
STARTCHAR char94
ENCODING 94
SWIDTH 1776 0
DWIDTH 16 0
BBX 16 25 0 -5
BITMAP
0180
03C0
07E0
0FF0
1E78
3C3C
781E
F00F
0000
0000
0000
0000
0000
0000
0000
0000
0000
0000
0000
0000
0000
0000
0000
0000
0000
ENDCHAR
STARTCHAR char95
ENCODING 95
SWIDTH 1776 0
DWIDTH 16 0
BBX 16 25 0 -5
BITMAP
0000
0000
0000
0000
0000
0000
0000
0000
0000
0000
0000
0000
0000
0000
0000
0000
0000
0000
0000
FFFF
FFFF
0000
0000
0000
0000
ENDCHAR
STARTCHAR char97
ENCODING 97
SWIDTH 1776 0
DWIDTH 16 0
BBX 16 25 0 -5
BITMAP
0000
0000
0000
0000
0000
0000
0FE0
1FF0
1838
0038
0038
0FB8
1FF8
3C78
3838
3838
3838
3C78
1FFC
0F9C
0000
0000
0000
0000
0000
ENDCHAR
STARTCHAR char98
ENCODING 98
SWIDTH 1776 0
DWIDTH 16 0
BBX 16 25 0 -5
BITMAP
0000
3800
3800
3800
3800
3800
3BE0
3FF0
3C38
381C
381C
381C
381C
381C
381C
381C
381C
3C38
3FF0
3BE0
0000
0000
0000
0000
0000
ENDCHAR
STARTCHAR char99
ENCODING 99
SWIDTH 1776 0
DWIDTH 16 0
BBX 16 25 0 -5
BITMAP
0000
0000
0000
0000
0000
0000
07F0
0FF8
1E3C
3C1C
3800
3800
3800
3800
3800
3800
3C1C
1E3C
0FF8
07F0
0000
0000
0000
0000
0000
ENDCHAR
STARTCHAR char100
ENCODING 100
SWIDTH 1776 0
DWIDTH 16 0
BBX 16 25 0 -5
BITMAP
0000
001C
001C
001C
001C
001C
07DC
0FFC
1C3C
381C
381C
381C
381C
381C
381C
381C
381C
1C3C
0FFC
07DC
0000
0000
0000
0000
0000
ENDCHAR
STARTCHAR char101
ENCODING 101
SWIDTH 1776 0
DWIDTH 16 0
BBX 16 25 0 -5
BITMAP
0000
0000
0000
0000
0000
0000
07E0
0FF0
1C38
1C38
381C
381C
3FFC
3FFC
3800
3800
1C1C
1C1C
0FF8
07F0
0000
0000
0000
0000
0000
ENDCHAR
STARTCHAR char102
ENCODING 102
SWIDTH 1776 0
DWIDTH 16 0
BBX 16 25 0 -5
BITMAP
0000
01FC
03FE
078E
0700
0700
3FF0
3FF0
0700
0700
0700
0700
0700
0700
0700
0700
0700
0700
0700
0700
0000
0000
0000
0000
0000
ENDCHAR
STARTCHAR char103
ENCODING 103
SWIDTH 1776 0
DWIDTH 16 0
BBX 16 25 0 -5
BITMAP
0000
0000
0000
0000
0000
0000
07DC
0FFC
1C3C
381C
381C
381C
381C
381C
381C
381C
1C3C
0FFC
07DC
001C
181C
1C38
0FF0
07E0
0000
ENDCHAR
STARTCHAR char104
ENCODING 104
SWIDTH 1776 0
DWIDTH 16 0
BBX 16 25 0 -5
BITMAP
0000
3800
3800
3800
3800
3800
3BE0
3FF0
3E78
3C38
3838
3838
3838
3838
3838
3838
3838
3838
3838
3838
0000
0000
0000
0000
0000
ENDCHAR
STARTCHAR char105
ENCODING 105
SWIDTH 1776 0
DWIDTH 16 0
BBX 16 25 0 -5
BITMAP
0000
00E0
00E0
00E0
0000
0000
0FE0
0FE0
00E0
00E0
00E0
00E0
00E0
00E0
00E0
00E0
00E0
00E0
00E0
00E0
0000
0000
0000
0000
0000
ENDCHAR
STARTCHAR char106
ENCODING 106
SWIDTH 1776 0
DWIDTH 16 0
BBX 16 25 0 -5
BITMAP
0000
0038
0038
0038
0000
0000
03F8
03F8
0038
0038
0038
0038
0038
0038
0038
0038
0038
0038
3838
3838
3838
1C70
0FE0
07C0
0000
ENDCHAR
STARTCHAR char107
ENCODING 107
SWIDTH 1776 0
DWIDTH 16 0
BBX 16 25 0 -5
BITMAP
0000
1C00
1C00
1C00
1C00
1C00
1C18
1C38
1C70
1CE0
1DC0
1F80
1F80
1FC0
1DE0
1CF0
1C78
1C3C
1C1E
1C0C
0000
0000
0000
0000
0000
ENDCHAR
STARTCHAR char108
ENCODING 108
SWIDTH 1776 0
DWIDTH 16 0
BBX 16 25 0 -5
BITMAP
0000
0FE0
0FE0
00E0
00E0
00E0
00E0
00E0
00E0
00E0
00E0
00E0
00E0
00E0
00E0
00E0
00E0
00E0
00E0
00E0
0000
0000
0000
0000
0000
ENDCHAR
STARTCHAR char109
ENCODING 109
SWIDTH 1776 0
DWIDTH 16 0
BBX 16 25 0 -5
BITMAP
0000
0000
0000
0000
0000
0000
6E78
7FFC
7BDE
718E
718E
718E
718E
718E
718E
718E
718E
718E
718E
718E
0000
0000
0000
0000
0000
ENDCHAR
STARTCHAR char110
ENCODING 110
SWIDTH 1776 0
DWIDTH 16 0
BBX 16 25 0 -5
BITMAP
0000
0000
0000
0000
0000
0000
3BE0
3FF0
3E78
3C38
3838
3838
3838
3838
3838
3838
3838
3838
3838
3838
0000
0000
0000
0000
0000
ENDCHAR
STARTCHAR char111
ENCODING 111
SWIDTH 1776 0
DWIDTH 16 0
BBX 16 25 0 -5
BITMAP
0000
0000
0000
0000
0000
0000
07E0
0FF0
1C38
381C
381C
381C
381C
381C
381C
381C
381C
1C38
0FF0
07E0
0000
0000
0000
0000
0000
ENDCHAR
STARTCHAR char112
ENCODING 112
SWIDTH 1776 0
DWIDTH 16 0
BBX 16 25 0 -5
BITMAP
0000
0000
0000
0000
0000
0000
3BE0
3FF0
3C78
383C
381C
381C
381C
381C
381C
381C
383C
3C78
3FF0
3BE0
3800
3800
3800
3800
0000
ENDCHAR
STARTCHAR char113
ENCODING 113
SWIDTH 1776 0
DWIDTH 16 0
BBX 16 25 0 -5
BITMAP
0000
0000
0000
0000
0000
0000
07DC
0FFC
1C3C
381C
381C
381C
381C
381C
381C
381C
381C
1C3C
0FFC
07DC
001C
001C
001C
001C
0000
ENDCHAR
STARTCHAR char114
ENCODING 114
SWIDTH 1776 0
DWIDTH 16 0
BBX 16 25 0 -5
BITMAP
0000
0000
0000
0000
0000
0000
39F0
3BF8
3F3C
3E18
3C00
3800
3800
3800
3800
3800
3800
3800
3800
3800
0000
0000
0000
0000
0000
ENDCHAR
STARTCHAR char115
ENCODING 115
SWIDTH 1776 0
DWIDTH 16 0
BBX 16 25 0 -5
BITMAP
0000
0000
0000
0000
0000
0000
07F0
0FF8
1E38
1C00
1E00
0F80
07E0
01F8
007C
003C
381C
3C3C
1FF8
0FF0
0000
0000
0000
0000
0000
ENDCHAR
STARTCHAR char116
ENCODING 116
SWIDTH 1776 0
DWIDTH 16 0
BBX 16 25 0 -5
BITMAP
0000
0000
0700
0700
0700
0700
3FF8
3FF8
0700
0700
0700
0700
0700
0700
0700
071C
071C
079C
03F8
01F0
0000
0000
0000
0000
0000
ENDCHAR
STARTCHAR char117
ENCODING 117
SWIDTH 1776 0
DWIDTH 16 0
BBX 16 25 0 -5
BITMAP
0000
0000
0000
0000
0000
0000
3838
3838
3838
3838
3838
3838
3838
3838
3838
3838
3838
3C78
1FF8
0FB8
0000
0000
0000
0000
0000
ENDCHAR
STARTCHAR char118
ENCODING 118
SWIDTH 1776 0
DWIDTH 16 0
BBX 16 25 0 -5
BITMAP
0000
0000
0000
0000
0000
0000
700E
700E
381C
381C
1C18
1C38
1C38
0E70
0E70
0660
0660
03C0
03C0
0180
0000
0000
0000
0000
0000
ENDCHAR
STARTCHAR char119
ENCODING 119
SWIDTH 1776 0
DWIDTH 16 0
BBX 16 25 0 -5
BITMAP
0000
0000
0000
0000
0000
0000
E007
E007
E007
718E
718E
73CE
73CE
37EC
366C
366C
3C3C
1C38
1C38
1818
0000
0000
0000
0000
0000
ENDCHAR
STARTCHAR char120
ENCODING 120
SWIDTH 1776 0
DWIDTH 16 0
BBX 16 25 0 -5
BITMAP
0000
0000
0000
0000
0000
0000
701C
783C
3838
1C70
0EE0
07C0
0380
0380
07C0
0EE0
1C70
3838
783C
701C
0000
0000
0000
0000
0000
ENDCHAR
STARTCHAR char121
ENCODING 121
SWIDTH 1776 0
DWIDTH 16 0
BBX 16 25 0 -5
BITMAP
0000
0000
0000
0000
0000
0000
700E
700E
381C
381C
1C38
1C38
0E70
0E70
07E0
03E0
03C0
01C0
01C0
0380
0380
E700
FF00
7E00
0000
ENDCHAR
STARTCHAR char122
ENCODING 122
SWIDTH 1776 0
DWIDTH 16 0
BBX 16 25 0 -5
BITMAP
0000
0000
0000
0000
0000
0000
1FFC
1FFC
001C
0038
0070
00E0
01C0
0380
0700
0E00
1C00
3800
3FFC
3FFC
0000
0000
0000
0000
0000
ENDCHAR
STARTCHAR char123
ENCODING 123
SWIDTH 1776 0
DWIDTH 16 0
BBX 16 25 0 -5
BITMAP
00F0
01C0
0380
0380
0380
0380
0380
0380
0380
0700
0E00
1C00
0E00
0700
0380
0380
0380
0380
0380
0380
0380
0380
01C0
00F0
0000
ENDCHAR
STARTCHAR char124
ENCODING 124
SWIDTH 1776 0
DWIDTH 16 0
BBX 16 25 0 -5
BITMAP
0380
0380
0380
0380
0380
0380
0380
0380
0380
0380
0380
0380
0380
0380
0380
0380
0380
0380
0380
0380
0380
0380
0380
0380
0000
ENDCHAR
STARTCHAR char125
ENCODING 125
SWIDTH 1776 0
DWIDTH 16 0
BBX 16 25 0 -5
BITMAP
0F00
0380
01C0
01C0
01C0
01C0
01C0
01C0
01C0
00E0
0070
0038
0070
00E0
01C0
01C0
01C0
01C0
01C0
01C0
01C0
01C0
0380
0F00
0000
ENDCHAR
STARTCHAR char126
ENCODING 126
SWIDTH 1776 0
DWIDTH 16 0
BBX 16 25 0 -5
BITMAP
0000
0000
0000
0000
0000
0000
0000
0000
0000
0000
0E03
1F86
3FFC
61F8
C070
0000
0000
0000
0000
0000
0000
0000
0000
0000
0000
ENDCHAR
ENDFONT
